# xmcd
#
# Track frame offsets:
#       150
#       46337
#       77075
#       145822
#       176042
#
# Disc length: 2515 seconds
#
# Revision: 3
# Processed by: cddbd v1.5.2PL0 Copyright (c) Steve Scherf et al.
# Submitted via: WhereIsIt 3.62
#
DISCID=3c09d105
DTITLE=Cream - Live Cream Vol 1 - MFSL Ultradisc
DYEAR=1970
DGENRE=Classic Rock
TTITLE0=N.S.U.
TTITLE1=Sleepy Time Time
TTITLE2=Sweet Wine
TTITLE3=Rollin' and Tumblin'
TTITLE4=Lawdy Mama
EXTD="Live Cream Vol.1 and Vol.2"\nMFSL Ultradisc II ~ UDCD 2-635\n24 KT Gold
EXTD=Plated CD's\nOriginal Master Recordings
EXTT0=
EXTT1=
EXTT2=
EXTT3=
EXTT4=
PLAYORDER=
